<?xml version="1.0" encoding="UTF-8" standalone="no"?>
<svg width="64" height="64" viewBox="0 0 64 64" xmlns="http://www.w3.org/2000/svg">
  <defs>
    <linearGradient id="gradient1" x1="0%" y1="0%" x2="100%" y2="100%">
      <stop offset="0%" stop-color="#3498db" />
      <stop offset="100%" stop-color="#2980b9" />
    </linearGradient>
    <linearGradient id="gradient2" x1="0%" y1="0%" x2="100%" y2="100%">
      <stop offset="0%" stop-color="#e74c3c" />
      <stop offset="100%" stop-color="#c0392b" />
    </linearGradient>
    <linearGradient id="gradient3" x1="0%" y1="0%" x2="100%" y2="100%">
      <stop offset="0%" stop-color="#2ecc71" />
      <stop offset="100%" stop-color="#27ae60" />
    </linearGradient>
    <linearGradient id="gradient4" x1="0%" y1="0%" x2="100%" y2="100%">
      <stop offset="0%" stop-color="#f1c40f" />
      <stop offset="100%" stop-color="#f39c12" />
    </linearGradient>
  </defs>
  
  <!-- Background -->
  <rect x="0" y="0" width="64" height="64" rx="8" fill="#34495e" />
  
  <!-- Tetris Blocks -->
  <g transform="translate(8, 8)">
    <!-- L Block -->
    <rect x="0" y="0" width="12" height="12" fill="url(#gradient1)" />
    <rect x="0" y="12" width="12" height="12" fill="url(#gradient1)" />
    <rect x="0" y="24" width="12" height="12" fill="url(#gradient1)" />
    <rect x="12" y="24" width="12" height="12" fill="url(#gradient1)" />
    
    <!-- Square Block -->
    <rect x="36" y="0" width="12" height="12" fill="url(#gradient2)" />
    <rect x="36" y="12" width="12" height="12" fill="url(#gradient2)" />
    <rect x="24" y="0" width="12" height="12" fill="url(#gradient2)" />
    <rect x="24" y="12" width="12" height="12" fill="url(#gradient2)" />
    
    <!-- Z Block -->
    <rect x="24" y="24" width="12" height="12" fill="url(#gradient3)" />
    <rect x="24" y="36" width="12" height="12" fill="url(#gradient3)" />
    <rect x="36" y="36" width="12" height="12" fill="url(#gradient3)" />
    <rect x="36" y="48" width="12" height="12" fill="url(#gradient3)" />
    
    <!-- T Block -->
    <rect x="0" y="36" width="12" height="12" fill="url(#gradient4)" />
    <rect x="12" y="36" width="12" height="12" fill="url(#gradient4)" />
    <rect x="12" y="48" width="12" height="12" fill="url(#gradient4)" />
    <rect x="24" y="48" width="12" height="12" fill="url(#gradient4)" />
  </g>
</svg> 